<?xml version="1.0" encoding="iso-8859-1"?>
<!-- Uploaded to: SVG Repo, www.svgrepo.com, Generator: SVG Repo Mixer Tools -->
<svg height="800px" width="800px" version="1.1" id="Layer_1" xmlns="http://www.w3.org/2000/svg" xmlns:xlink="http://www.w3.org/1999/xlink" 
	 viewBox="0 0 512 512" xml:space="preserve">
<g>
	<g>
		<path style="fill:#010101;" d="M490.259,214.692H420.59c-2.62-81.229-63.714-148.414-143.392-159.322V22.284
			c0-11.958-9.783-21.741-21.741-21.741c-11.958,0-21.741,9.783-21.741,21.741v32.821C153.778,65.17,90.83,132.797,88.151,214.692
			h-66.41C9.783,214.692,0,224.476,0,236.433c0,11.958,9.783,21.741,21.741,21.741h14.132v231.541
			c0,11.958,9.783,21.741,21.741,21.741h67.397h85.877h89.138h85.877h67.397c11.958,0,20.654-9.783,20.654-20.654V258.174h15.219
			c11.958,0,22.828-9.783,22.828-21.741C512,224.476,502.217,214.692,490.259,214.692z M255.457,96.204
			c66.662,0,120.956,52.531,123.798,118.488H131.658C134.5,148.735,188.794,96.204,255.457,96.204z M147.839,469.062V358.183
			c0-9.783,7.609-17.393,17.393-17.393h7.609c9.783,0,17.393,7.609,17.393,17.393v110.879H147.839z M321.766,469.062V358.183
			c0-9.783,7.609-17.393,17.393-17.393h7.609c9.783,0,17.393,7.609,17.393,17.393v110.879H321.766z M431.558,469.062h-26.089
			V358.183c0-32.611-26.089-59.788-59.788-59.788h-7.609c-32.611,0-59.788,26.089-59.788,59.788v110.879h-47.83V358.183
			c0-32.611-26.089-59.788-59.788-59.788h-7.609c-32.611,0-59.788,26.089-59.788,59.788v110.879H79.355V258.174h352.204V469.062z"/>
	</g>
</g>
</svg>